<mxfile host="app.diagrams.net" agent="Mozilla/5.0 (Windows NT 10.0; Win64; x64) AppleWebKit/537.36 (KHTML, like Gecko) Chrome/132.0.0.0 Safari/537.36" version="26.0.14">
  <diagram name="Page-1" id="UeO_jB6SwlZnxGUAqAyF">
    <mxGraphModel dx="882" dy="509" grid="1" gridSize="10" guides="1" tooltips="1" connect="1" arrows="1" fold="1" page="1" pageScale="1" pageWidth="827" pageHeight="1169" math="0" shadow="0">
      <root>
        <mxCell id="0" />
        <mxCell id="1" parent="0" />
        <mxCell id="RO3jjxFU-Slj0Ul6ZymP-1" value="" style="whiteSpace=wrap;html=1;aspect=fixed;rotation=0;" parent="1" vertex="1">
          <mxGeometry x="240" y="80" width="658" height="370" as="geometry" />
        </mxCell>
        <mxCell id="RO3jjxFU-Slj0Ul6ZymP-2" value="physics and maths tutorial .text" style="rounded=1;whiteSpace=wrap;html=1;" parent="1" vertex="1">
          <mxGeometry x="270" y="100" width="240" height="20" as="geometry" />
        </mxCell>
        <mxCell id="RO3jjxFU-Slj0Ul6ZymP-3" value="&lt;b&gt;READ ME:&lt;/b&gt;&lt;div&gt;&lt;/div&gt;&lt;div&gt;Introduction to my project.&amp;nbsp;&lt;/div&gt;&lt;div&gt;How what why where.&lt;/div&gt;&lt;div&gt;Brief summary on the topic.&lt;/div&gt;" style="rounded=0;whiteSpace=wrap;html=1;align=left;verticalAlign=top;" parent="1" vertex="1">
          <mxGeometry x="270" y="250" width="330" height="200" as="geometry" />
        </mxCell>
        <mxCell id="JPvkd2jB-4abTyJoPyg_-1" value="telecommunications explained .text" style="rounded=1;whiteSpace=wrap;html=1;" vertex="1" parent="1">
          <mxGeometry x="270" y="120" width="240" height="20" as="geometry" />
        </mxCell>
        <mxCell id="JPvkd2jB-4abTyJoPyg_-2" value="telegraph .text" style="rounded=1;whiteSpace=wrap;html=1;" vertex="1" parent="1">
          <mxGeometry x="270" y="140" width="240" height="20" as="geometry" />
        </mxCell>
        <mxCell id="JPvkd2jB-4abTyJoPyg_-3" value="pager .text" style="rounded=1;whiteSpace=wrap;html=1;" vertex="1" parent="1">
          <mxGeometry x="270" y="160" width="240" height="20" as="geometry" />
        </mxCell>
        <mxCell id="JPvkd2jB-4abTyJoPyg_-5" value="file: instructions" style="rounded=1;whiteSpace=wrap;html=1;" vertex="1" parent="1">
          <mxGeometry x="270" y="180" width="240" height="20" as="geometry" />
        </mxCell>
        <mxCell id="JPvkd2jB-4abTyJoPyg_-6" value="" style="strokeWidth=2;html=1;shape=mxgraph.flowchart.annotation_2;align=left;labelPosition=right;pointerEvents=1;rotation=-180;" vertex="1" parent="1">
          <mxGeometry x="520" y="100" width="90" height="100" as="geometry" />
        </mxCell>
        <mxCell id="JPvkd2jB-4abTyJoPyg_-9" value="Not accurate. Could also put everything in ordered folders." style="rounded=0;whiteSpace=wrap;html=1;" vertex="1" parent="1">
          <mxGeometry x="620" y="110" width="120" height="60" as="geometry" />
        </mxCell>
      </root>
    </mxGraphModel>
  </diagram>
</mxfile>
